<svg xmlns="http://www.w3.org/2000/svg" width="18" height="24" viewBox="0 0 18 24"><g><g><g><path fill="#fff" d="M12.146 8.328a3.072 3.072 0 0 1-3.068 3.068A3.072 3.072 0 0 1 6.01 8.328 3.072 3.072 0 0 1 9.078 5.26a3.072 3.072 0 0 1 3.068 3.068zm-.876 0a2.194 2.194 0 0 0-2.192-2.191 2.194 2.194 0 0 0-2.191 2.191c0 1.208.983 2.192 2.191 2.192a2.194 2.194 0 0 0 2.192-2.192z"/></g><g><path fill="#fff" d="M15.73 14.289L9.004 24l-6.734-9.725C-.24 10.926.124 5.399 3.062 2.462A8.35 8.35 0 0 1 9.005 0a8.35 8.35 0 0 1 5.944 2.462c2.938 2.937 3.303 8.464.78 11.827zm-.712-.513c2.29-3.052 1.963-8.043-.689-10.694A7.48 7.48 0 0 0 9.005.877c-2.01 0-3.9.783-5.323 2.205-2.651 2.651-2.978 7.642-.7 10.68l6.023 8.698z"/></g></g></g></svg>