<svg xmlns="http://www.w3.org/2000/svg" width="24" height="24" viewBox="0 0 24 24"><g><g><g/><g><g><g><g><path fill="#fff" d="M.005 9.176a.381.381 0 0 1 .016-.082.406.406 0 0 1 .023-.068.357.357 0 0 1 .04-.062.377.377 0 0 1 .053-.062c.006-.005.01-.013.016-.018L4 5.896V2.799a1.2 1.2 0 0 1 1.2-1.2h4.335L11.271.252a1.186 1.186 0 0 1 1.459 0l1.736 1.347H18.8A1.2 1.2 0 0 1 20 2.8v3.097l3.846 2.988c.007.005.01.013.016.018.02.02.038.04.053.062.015.02.029.04.04.062.01.022.017.045.023.068a.38.38 0 0 1 .016.08c0 .009.005.016.005.025V22.8c0 .255-.083.502-.235.706l-.005.012c-.003.003-.01.006-.013.01-.225.296-.575.47-.946.472H1.2a1.194 1.194 0 0 1-.949-.473c-.003-.004-.008-.005-.01-.01-.004-.003-.004-.007-.006-.01A1.187 1.187 0 0 1 0 22.8V9.2c0-.009.004-.016.005-.024zM12.24.883a.384.384 0 0 0-.478 0l-.923.716h2.32zM22.7 23.2l-10.46-8.124a.384.384 0 0 0-.478 0L1.301 23.2zM.8 22.577H.8zm10.47-8.133a1.187 1.187 0 0 1 1.459 0L23.2 22.577V9.809l-6.555 5.09a.4.4 0 0 1-.49-.632l6.66-5.171L20 6.909v3.09a.4.4 0 0 1-.8 0V2.8a.4.4 0 0 0-.4-.4H5.2a.4.4 0 0 0-.4.4V10a.4.4 0 1 1-.8 0V6.91L1.185 9.096l6.671 5.18a.4.4 0 1 1-.49.632L.8 9.808v12.769z"/></g><g><path fill="#fff" d="M7.2 9.6V7.998a4.8 4.8 0 1 1 4.8 4.8.4.4 0 1 1 0-.8 4 4 0 1 0-4-4v1.6a.8.8 0 1 0 1.6 0V8a.4.4 0 1 1 .8 0 1.6 1.6 0 1 0 1.6-1.6.4.4 0 1 1 0-.8 2.4 2.4 0 1 1-1.616 4.169A1.596 1.596 0 0 1 7.2 9.599z"/></g></g></g></g></g></g></svg>