<svg xmlns="http://www.w3.org/2000/svg" width="24" height="24" viewBox="0 0 24 24"><g><g><g/><g><g><g><g><path fill="#fff" d="M23.37 18.514a1.41 1.41 0 0 1 .428 1.902l-1.222 2.03a2.863 2.863 0 0 1-1.695 1.307 7.085 7.085 0 0 1-1.88.245c-2.758 0-6.77-1.45-12.16-6.839C.063 10.383-.487 5.783.245 3.118c.2-.713.668-1.32 1.306-1.696L3.584.202a1.41 1.41 0 0 1 1.9.428l3.24 4.857a1.419 1.419 0 0 1-.308 1.899L6.597 8.8a.606.606 0 0 0-.16.778l.148.269c.486.89 1.093 2.002 3.33 4.24 2.237 2.237 3.347 2.842 4.24 3.329l.269.148a.605.605 0 0 0 .775-.163l1.415-1.82a1.418 1.418 0 0 1 1.899-.308zm-.261 1.492a.611.611 0 0 0-.186-.825l-4.857-3.24a.616.616 0 0 0-.824.134l-1.415 1.818a1.4 1.4 0 0 1-1.796.37l-.263-.144c-.937-.511-2.103-1.146-4.423-3.466-2.32-2.32-2.955-3.486-3.467-4.423l-.144-.263a1.4 1.4 0 0 1 .37-1.796l1.82-1.415a.616.616 0 0 0 .133-.824L6.58 3.717 4.82 1.075a.612.612 0 0 0-.825-.186L1.964 2.108c-.462.27-.8.707-.947 1.221-.675 2.461-.116 6.76 6.39 13.264 6.504 6.505 10.803 7.065 13.263 6.39.514-.146.95-.485 1.22-.946z"/></g><g><path fill="#fff" d="M13.6 4a6.807 6.807 0 0 1 6.799 6.799.4.4 0 1 0 .8 0 7.607 7.607 0 0 0-7.6-7.599.4.4 0 1 0 0 .8z"/></g><g><path fill="#fff" d="M13.6 6.4a4.405 4.405 0 0 1 4.4 4.4.4.4 0 0 0 .8 0 5.205 5.205 0 0 0-5.2-5.2.4.4 0 1 0 0 .8z"/></g><g><path fill="#fff" d="M13.6 8.8a2.002 2.002 0 0 1 2 2 .4.4 0 0 0 .8 0A2.803 2.803 0 0 0 13.6 8a.4.4 0 1 0 0 .8z"/></g></g></g></g></g></g></svg>