<svg xmlns="http://www.w3.org/2000/svg" width="120" height="120" viewBox="0 0 120 120"><g><g><g/><g><g><path fill="#fe90c5" d="M111.87 15c-1.656 0-3.15.714-4.205 1.858A5.706 5.706 0 0 0 103.459 15c-3.197 0-5.789 2.659-5.789 5.938 0 4.594 9.995 12.235 9.995 12.235s9.995-7.641 9.995-12.235c0-3.28-2.592-5.938-5.79-5.938z"/></g><g><path fill="#fe90c5" d="M16.54 2.34c-1.656 0-3.15.714-4.205 1.858A5.706 5.706 0 0 0 8.129 2.34c-3.197 0-5.789 2.659-5.789 5.938 0 4.594 9.995 12.235 9.995 12.235s9.995-7.641 9.995-12.235c0-3.28-2.592-5.938-5.79-5.938z"/></g></g><g><path fill="#ffd4ac" d="M91.26 117.434l26.397-26.396-12.589-12.589.015-10.449A33.537 33.537 0 0 0 99.4 49.275L89.084 33.891a6.995 6.995 0 0 0-9.853-1.811c-3.02 2.139-3.765 6.318-1.846 9.484l3.943 6.504c.617 1.018-.733 2.077-1.575 1.235L50.731 20.28c-2.68-2.68-7.068-2.813-9.765-.15-2.59 2.556-2.703 6.655-.353 9.355l-4.233-4.233a6.844 6.844 0 0 0-9.586-.091c-2.762 2.661-2.678 7.184.034 9.897l4.106 4.106c-2.7-2.35-6.8-2.237-9.356.353-2.663 2.697-2.529 7.086.15 9.765l4.6 4.6c-2.688-2.34-6.765-2.238-9.323.32a6.844 6.844 0 0 0 0 9.68l22.231 22.231 8.92 8.92a33.534 33.534 0 0 0 23.761 9.822l6.753-.01z"/></g><g><path fill="#ffcc9c" d="M21.317 117.651l10.305-10.304 7.512.01a24.111 24.111 0 0 0 13.462-4.085l11.06-7.416a5.029 5.029 0 0 0-5.408-8.477l-4.78 2.898c-.733.444-1.495-.526-.889-1.132L68.403 73.32a4.92 4.92 0 0 0-6.958-6.958L50.39 77.418l3.46-3.435L64.903 62.93a4.92 4.92 0 0 0-6.958-6.958L46.89 67.025l-3.434 3.459 11.055-11.055a4.92 4.92 0 0 0-6.959-6.958L36.5 63.526l.012.012 2.894-2.894a4.92 4.92 0 0 0-6.958-6.958l-6.335 6.334L31.33 54.8 19.7 66.432a24.11 24.11 0 0 0-7.061 17.083l.007 4.855L2.34 98.674z"/></g><g><path d="M92.915 115.78a2.344 2.344 0 1 1-3.314 3.315l-11.9-11.9-5.781.008h-.051a36.075 36.075 0 0 1-15.597-3.57l-2.369 1.588a26.363 26.363 0 0 1-14.733 4.482h-.037l-6.539-.01-9.617 9.618a2.338 2.338 0 0 1-1.657.686 2.344 2.344 0 0 1-1.657-4.001l10.304-10.305a2.344 2.344 0 0 1 1.658-.686h.003l7.512.01h.03a21.69 21.69 0 0 0 12.123-3.688l11.06-7.416a2.665 2.665 0 0 0 1.144-1.737 2.664 2.664 0 0 0-.44-2.033 2.69 2.69 0 0 0-3.591-.756l-4.78 2.898a3.034 3.034 0 0 1-4.006-.73 3.034 3.034 0 0 1 .245-4.064l15.824-15.824a2.579 2.579 0 0 0 0-3.644 2.578 2.578 0 0 0-3.427-.192L52.05 79.076a2.344 2.344 0 0 1-3.314-3.315l14.513-14.488a2.58 2.58 0 0 0 0-3.644 2.56 2.56 0 0 0-1.822-.755c-.688 0-1.335.268-1.822.755L45.116 72.142a2.337 2.337 0 0 1-1.657.687 2.344 2.344 0 0 1-1.657-4.001l11.247-11.272a2.58 2.58 0 0 0-.192-3.427 2.56 2.56 0 0 0-1.822-.754c-.688 0-1.335.267-1.822.754L38.171 65.196a2.337 2.337 0 0 1-1.658.687c-.6 0-1.2-.23-1.657-.687l-.006-.006-.006-.006a2.344 2.344 0 0 1 0-3.315l3.098-3.098a2.555 2.555 0 0 0 .563-1.605c0-.689-.268-1.336-.755-1.822a2.558 2.558 0 0 0-1.821-.755c-.689 0-1.336.268-1.822.755l-1.116 1.115L21.36 68.092a21.62 21.62 0 0 0-6.375 15.421l.007 4.855c0 .623-.246 1.22-.687 1.661L4.001 100.333a2.337 2.337 0 0 1-1.657.686 2.344 2.344 0 0 1-1.657-4.001l9.616-9.617-.006-3.882c-.009-6.257 2.141-12.183 6.096-16.932l-1.046-1.046c-3.582-3.582-3.582-9.41 0-12.993a9.126 9.126 0 0 1 4.036-2.35c-3-3.607-2.812-8.987.57-12.368a9.128 9.128 0 0 1 4.126-2.376c-2.58-3.588-2.26-8.632.964-11.856a9.128 9.128 0 0 1 6.497-2.691c1.951 0 3.808.606 5.36 1.725a9.129 9.129 0 0 1 2.375-4.125c3.582-3.582 9.411-3.583 12.994 0l4.923 4.924a2.344 2.344 0 1 1-3.314 3.314l-4.924-4.924a4.505 4.505 0 0 0-6.364 0 4.506 4.506 0 0 0-.312 6.018l13.439 13.473a2.344 2.344 0 0 1-3.315 3.315l-17.68-17.715a4.505 4.505 0 0 0-6.364 0 4.505 4.505 0 0 0 0 6.364l10.09 10.092a2.344 2.344 0 0 1-3.314 3.314l-5.85-5.85a4.506 4.506 0 0 0-6.017.312 4.505 4.505 0 0 0 0 6.364l6.04 6.006 1.485-1.485A7.217 7.217 0 0 1 35.93 49.9c1.94 0 3.765.756 5.137 2.128a7.27 7.27 0 0 1 1.481 2.137l3.352-3.352a7.217 7.217 0 0 1 5.137-2.127c1.94 0 3.764.755 5.136 2.127a7.255 7.255 0 0 1 1.583 2.367 7.22 7.22 0 0 1 3.673-.995c1.94 0 3.764.756 5.137 2.128a7.218 7.218 0 0 1 2.127 5.137 7.22 7.22 0 0 1-.995 3.673c.875.36 1.678.893 2.367 1.582 2.832 2.833 2.832 7.44 0 10.273l-9.335 9.335.114-.001a7.382 7.382 0 0 1 6.055 3.139 7.319 7.319 0 0 1 1.208 5.582 7.317 7.317 0 0 1-3.141 4.77l-4.053 2.717a31.373 31.373 0 0 0 10.958 1.994h.044l6.753-.01h.004c.621 0 1.217.247 1.657.687zM18.662 62.228l.966.967 4.83-4.83 1.517-1.517-1.295-1.296a4.506 4.506 0 0 0-6.018.312 4.505 4.505 0 0 0 0 6.364z"/></g><g><path d="M117.654 88.7c-.617 0-1.221.248-1.657.687a2.357 2.357 0 0 0-.687 1.657c0 .616.25 1.22.687 1.657.436.435 1.04.687 1.657.687a2.36 2.36 0 0 0 1.657-.687c.436-.439.687-1.04.687-1.657 0-.62-.251-1.221-.687-1.657a2.351 2.351 0 0 0-1.657-.687z"/></g><g><path d="M107.416 77.485l.013-9.477a35.755 35.755 0 0 0-6.08-20.033L91.035 32.59a9.268 9.268 0 0 0-6.042-3.98 9.267 9.267 0 0 0-7.07 1.531c-3.396 2.378-4.746 6.668-3.545 10.47l-6.126-6.125a2.345 2.345 0 0 0-3.315 3.315l13.16 13.159a3.314 3.314 0 0 0 4.438.267 3.314 3.314 0 0 0 .798-4.375l-4.031-6.65a4.662 4.662 0 0 1 1.31-6.221 4.617 4.617 0 0 1 3.52-.762 4.616 4.616 0 0 1 3.01 1.982l10.315 15.384a31.083 31.083 0 0 1 5.286 17.416l-.015 10.449c0 .622.246 1.22.686 1.66l6.287 6.287a2.337 2.337 0 0 0 1.657.686 2.344 2.344 0 0 0 1.657-4.001z"/></g><g><path d="M61.086 32.978c.616 0 1.219-.251 1.655-.687.438-.436.689-1.04.689-1.657s-.25-1.221-.69-1.657a2.352 2.352 0 0 0-1.654-.687c-.619 0-1.221.25-1.66.687a2.361 2.361 0 0 0-.686 1.657c0 .619.25 1.22.687 1.657.438.436 1.04.687 1.66.687z"/></g><g><path d="M84.49 65.351a2.344 2.344 0 0 0-3.315-3.315l-1.022 1.023c-4.377 4.377-4.377 11.498 0 15.875a2.337 2.337 0 0 0 1.657.686 2.344 2.344 0 0 0 1.657-4.001 6.546 6.546 0 0 1 0-9.246z"/></g><g><path d="M119.997 20.942c0 2.588-1.86 5.696-5.688 9.502a59.762 59.762 0 0 1-5.227 4.595 2.34 2.34 0 0 1-2.847 0 59.695 59.695 0 0 1-5.226-4.595c-3.828-3.806-5.689-6.914-5.689-9.502 0-4.567 3.649-8.282 8.133-8.282a8.05 8.05 0 0 1 4.206 1.196 8.05 8.05 0 0 1 4.205-1.196c4.485 0 8.133 3.715 8.133 8.282zm-4.687 0c0-1.982-1.546-3.595-3.446-3.595a3.35 3.35 0 0 0-2.483 1.104 2.343 2.343 0 0 1-3.445 0 3.35 3.35 0 0 0-2.483-1.103c-1.9 0-3.446 1.612-3.446 3.594 0 1.833 3.734 5.983 7.651 9.237 3.917-3.257 7.652-7.409 7.652-9.237z"/></g><g><path d="M5.689 17.784C1.86 13.977 0 10.869 0 8.28 0 3.715 3.649 0 8.133 0a8.05 8.05 0 0 1 4.206 1.196A8.05 8.05 0 0 1 16.544 0c4.485 0 8.133 3.715 8.133 8.282 0 2.588-1.86 5.696-5.688 9.502a59.762 59.762 0 0 1-5.227 4.595 2.34 2.34 0 0 1-2.847 0 59.769 59.769 0 0 1-5.226-4.595zM4.687 8.28c0 1.834 3.734 5.984 7.651 9.237 3.917-3.256 7.652-7.409 7.652-9.237 0-1.981-1.546-3.594-3.446-3.594a3.35 3.35 0 0 0-2.483 1.103 2.344 2.344 0 0 1-3.445 0 3.35 3.35 0 0 0-2.483-1.103c-1.9 0-3.445 1.613-3.445 3.594z"/></g></g></g></svg>