<svg xmlns="http://www.w3.org/2000/svg" width="120" height="108" viewBox="0 0 120 108"><g><g><path fill="#707487" d="M68.887.67H51.109c-4.902 0-8.889 3.987-8.889 8.889v11.11h4.444v-8.888a4.45 4.45 0 0 1 4.445-4.444h17.778a4.45 4.45 0 0 1 4.444 4.444v8.89h4.445V9.558c0-4.902-3.987-8.889-8.89-8.889z"/></g><g><g><path fill="#5b5d6e" d="M46.664 14H42.22v6.667h4.444z"/></g><g><path fill="#5b5d6e" d="M77.774 14H73.33v6.667h4.444z"/></g></g><g><path fill="#ff5050" d="M113.333 107.329H6.667A6.667 6.667 0 0 1 0 100.662V25.107a6.666 6.666 0 0 1 6.667-6.667h106.666A6.667 6.667 0 0 1 120 25.107v75.555a6.667 6.667 0 0 1-6.667 6.667z"/></g><g><path fill="#e4eaf8" d="M60.001 91.782c17.182 0 31.111-13.929 31.111-31.11 0-17.183-13.929-31.112-31.11-31.112-17.183 0-31.112 13.929-31.112 31.111 0 17.182 13.929 31.111 31.111 31.111z"/></g><g><path fill="#fff" d="M59.997 87.333c14.727 0 26.666-11.939 26.666-26.666C86.663 45.939 74.724 34 59.997 34 45.269 34 33.33 45.94 33.33 60.667c0 14.727 11.94 26.666 26.667 26.666z"/></g><g><path fill="#ff5050" d="M73.329 56.221h-8.89v-8.889a2.222 2.222 0 0 0-2.221-2.222h-4.445a2.222 2.222 0 0 0-2.222 2.222v8.889h-8.889a2.222 2.222 0 0 0-2.222 2.222v4.445c0 1.227.995 2.222 2.222 2.222h8.889v8.889c0 1.227.995 2.222 2.222 2.222h4.445a2.222 2.222 0 0 0 2.222-2.222v-8.89h8.889a2.222 2.222 0 0 0 2.222-2.221v-4.445a2.222 2.222 0 0 0-2.222-2.222z"/></g><g><path fill="#c84146" d="M113.333 100.667H6.667A6.667 6.667 0 0 1 0 94v6.667a6.666 6.666 0 0 0 6.667 6.666h106.666a6.667 6.667 0 0 0 6.667-6.666V94a6.667 6.667 0 0 1-6.667 6.667z"/></g></g></svg>