<svg xmlns="http://www.w3.org/2000/svg" width="108" height="120" viewBox="0 0 108 120"><g><g><g/><g><path fill="#e4eaf8" d="M54.003 120c21.99-6.207 37.98-22.759 41.979-31.035 7.057-14.608 10.961-52.934 11.814-62.127-7.853-5.19-14.04-12.83-17.562-21.885C80.232 1.853 67.668 0 54.003 0 40.338 0 27.774 1.854 17.772 4.953 14.251 14.008 8.062 21.647.21 26.838c.853 9.193 4.757 47.52 11.814 62.127 3.998 8.276 19.99 24.828 41.979 31.035z"/></g><g><g><path fill="#d5dced" d="M17.772 4.953C14.25 14.008 8.062 21.647.21 26.838c.853 9.193 4.757 47.52 11.814 62.127 3.998 8.276 19.99 24.828 41.979 31.035V0C40.338 0 27.774 1.854 17.772 4.953z"/></g><g><path fill="#d5dced" d="M53.997 8.28c-9.994 0-19.782 1.07-28.305 3.093l-1.843.437-.873 1.682a53.996 53.996 0 0 1-12.453 15.873L8.9 30.78l.23 2.143c1.005 9.362 4.72 40.812 10.34 52.446 2.812 5.82 15.424 19.283 33.154 25.521l1.373.484 1.373-.484c17.73-6.238 30.342-19.7 33.154-25.522 5.62-11.634 9.335-43.084 10.34-52.445l.23-2.143-1.623-1.416a53.996 53.996 0 0 1-12.453-15.873l-.873-1.682-1.843-.437C73.779 9.349 63.99 8.28 53.997 8.28z"/></g></g><g><path fill="#afb9d2" d="M25.692 11.373l-1.843.437-.873 1.682a53.996 53.996 0 0 1-12.453 15.873L8.9 30.782l.23 2.142c1.005 9.362 4.72 40.812 10.34 52.446 2.812 5.82 15.424 19.283 33.154 25.521l1.373.484V8.28c-9.994 0-19.782 1.07-28.305 3.093z"/></g><g><path fill="#00c3ff" d="M54.003 12.41c9.694 0 19.2 1.046 27.348 2.98a58.245 58.245 0 0 0 13.405 17.084c-2.197 20.465-5.905 42.71-9.952 51.088-2.292 4.743-14.135 17.554-30.801 23.418-16.666-5.864-28.51-18.675-30.801-23.418-4.047-8.377-7.755-30.623-9.952-51.088a58.252 58.252 0 0 0 13.404-17.083c8.15-1.935 17.655-2.981 27.349-2.981z"/></g><g><path fill="#00aaf0" d="M26.654 15.39A58.246 58.246 0 0 1 13.25 32.475c2.197 20.465 5.905 42.71 9.952 51.088 2.291 4.743 14.135 17.554 30.8 23.418l.001-94.57c-9.694 0-19.2 1.046-27.349 2.98z"/></g></g></g></svg>